<mxfile host="app.diagrams.net" modified="2022-04-10T09:04:16.809Z" agent="5.0 (Windows NT 6.1; Win64; x64) AppleWebKit/537.36 (KHTML, like Gecko) Chrome/98.0.4758.102 Safari/537.36" etag="BmwGIPfBZElhXl4l_fWB" version="17.4.0" type="github">
  <diagram id="6t-HRYRo3RntBsjj9dX_" name="Page-1">
    <mxGraphModel dx="1673" dy="2110" grid="1" gridSize="10" guides="1" tooltips="1" connect="1" arrows="1" fold="1" page="1" pageScale="1" pageWidth="827" pageHeight="1169" math="0" shadow="0">
      <root>
        <mxCell id="0" />
        <mxCell id="1" parent="0" />
        <mxCell id="4zZC_BVY_g6dotP5J9YV-17" value="" style="rounded=1;whiteSpace=wrap;html=1;" vertex="1" parent="1">
          <mxGeometry x="160" y="-270" width="600" height="690" as="geometry" />
        </mxCell>
        <mxCell id="4zZC_BVY_g6dotP5J9YV-1" value="" style="rounded=1;whiteSpace=wrap;html=1;" vertex="1" parent="1">
          <mxGeometry x="210" y="430" width="80" height="40" as="geometry" />
        </mxCell>
        <mxCell id="4zZC_BVY_g6dotP5J9YV-20" style="edgeStyle=orthogonalEdgeStyle;rounded=0;orthogonalLoop=1;jettySize=auto;html=1;exitX=0;exitY=0.5;exitDx=0;exitDy=0;entryX=0;entryY=0.5;entryDx=0;entryDy=0;" edge="1" parent="1" source="4zZC_BVY_g6dotP5J9YV-2" target="4zZC_BVY_g6dotP5J9YV-17">
          <mxGeometry relative="1" as="geometry">
            <Array as="points">
              <mxPoint x="110" y="510" />
              <mxPoint x="110" y="140" />
            </Array>
          </mxGeometry>
        </mxCell>
        <mxCell id="4zZC_BVY_g6dotP5J9YV-2" value="感知" style="rounded=1;whiteSpace=wrap;html=1;" vertex="1" parent="1">
          <mxGeometry x="210" y="490" width="510" height="40" as="geometry" />
        </mxCell>
        <mxCell id="4zZC_BVY_g6dotP5J9YV-3" value="" style="rounded=1;whiteSpace=wrap;html=1;" vertex="1" parent="1">
          <mxGeometry x="340" y="430" width="80" height="40" as="geometry" />
        </mxCell>
        <mxCell id="4zZC_BVY_g6dotP5J9YV-4" value="" style="rounded=1;whiteSpace=wrap;html=1;" vertex="1" parent="1">
          <mxGeometry x="470" y="430" width="80" height="40" as="geometry" />
        </mxCell>
        <mxCell id="4zZC_BVY_g6dotP5J9YV-5" value="" style="rounded=1;whiteSpace=wrap;html=1;" vertex="1" parent="1">
          <mxGeometry x="610" y="430" width="80" height="40" as="geometry" />
        </mxCell>
        <mxCell id="4zZC_BVY_g6dotP5J9YV-6" value="" style="rounded=1;whiteSpace=wrap;html=1;" vertex="1" parent="1">
          <mxGeometry x="210" y="160" width="510" height="240" as="geometry" />
        </mxCell>
        <mxCell id="4zZC_BVY_g6dotP5J9YV-7" value="系统之美" style="ellipse;whiteSpace=wrap;html=1;" vertex="1" parent="1">
          <mxGeometry x="230" y="170" width="70" height="50" as="geometry" />
        </mxCell>
        <mxCell id="4zZC_BVY_g6dotP5J9YV-8" value="多维" style="ellipse;whiteSpace=wrap;html=1;" vertex="1" parent="1">
          <mxGeometry x="230" y="250" width="70" height="50" as="geometry" />
        </mxCell>
        <mxCell id="4zZC_BVY_g6dotP5J9YV-9" value="博弈论" style="ellipse;whiteSpace=wrap;html=1;" vertex="1" parent="1">
          <mxGeometry x="515" y="170" width="70" height="50" as="geometry" />
        </mxCell>
        <mxCell id="4zZC_BVY_g6dotP5J9YV-10" value="结构化" style="ellipse;whiteSpace=wrap;html=1;" vertex="1" parent="1">
          <mxGeometry x="230" y="210" width="70" height="50" as="geometry" />
        </mxCell>
        <mxCell id="4zZC_BVY_g6dotP5J9YV-11" value="" style="rounded=1;whiteSpace=wrap;html=1;" vertex="1" parent="1">
          <mxGeometry x="210" y="-240" width="510" height="240" as="geometry" />
        </mxCell>
        <mxCell id="4zZC_BVY_g6dotP5J9YV-12" value="思维" style="text;html=1;strokeColor=none;fillColor=none;align=center;verticalAlign=middle;whiteSpace=wrap;rounded=0;" vertex="1" parent="1">
          <mxGeometry x="180" y="140" width="60" height="30" as="geometry" />
        </mxCell>
        <mxCell id="4zZC_BVY_g6dotP5J9YV-13" value="行为" style="text;html=1;strokeColor=none;fillColor=none;align=center;verticalAlign=middle;whiteSpace=wrap;rounded=0;" vertex="1" parent="1">
          <mxGeometry x="180" y="-260" width="60" height="30" as="geometry" />
        </mxCell>
        <mxCell id="4zZC_BVY_g6dotP5J9YV-14" value="SWART" style="ellipse;whiteSpace=wrap;html=1;" vertex="1" parent="1">
          <mxGeometry x="230" y="-220" width="70" height="50" as="geometry" />
        </mxCell>
        <mxCell id="4zZC_BVY_g6dotP5J9YV-15" value="PDCA" style="ellipse;whiteSpace=wrap;html=1;" vertex="1" parent="1">
          <mxGeometry x="330" y="-220" width="70" height="50" as="geometry" />
        </mxCell>
        <mxCell id="4zZC_BVY_g6dotP5J9YV-18" style="edgeStyle=orthogonalEdgeStyle;rounded=0;orthogonalLoop=1;jettySize=auto;html=1;exitX=1;exitY=0.5;exitDx=0;exitDy=0;entryX=1;entryY=0.5;entryDx=0;entryDy=0;" edge="1" parent="1" source="4zZC_BVY_g6dotP5J9YV-16" target="4zZC_BVY_g6dotP5J9YV-17">
          <mxGeometry relative="1" as="geometry">
            <Array as="points">
              <mxPoint x="810" y="-340" />
              <mxPoint x="810" y="140" />
              <mxPoint x="760" y="140" />
            </Array>
          </mxGeometry>
        </mxCell>
        <mxCell id="4zZC_BVY_g6dotP5J9YV-19" value="复盘" style="edgeLabel;html=1;align=center;verticalAlign=middle;resizable=0;points=[];" vertex="1" connectable="0" parent="4zZC_BVY_g6dotP5J9YV-18">
          <mxGeometry x="0.0044" y="-2" relative="1" as="geometry">
            <mxPoint as="offset" />
          </mxGeometry>
        </mxCell>
        <mxCell id="4zZC_BVY_g6dotP5J9YV-16" value="实践" style="rounded=1;whiteSpace=wrap;html=1;" vertex="1" parent="1">
          <mxGeometry x="210" y="-390" width="510" height="100" as="geometry" />
        </mxCell>
        <mxCell id="4zZC_BVY_g6dotP5J9YV-21" value="进化" style="text;html=1;strokeColor=none;fillColor=none;align=center;verticalAlign=middle;whiteSpace=wrap;rounded=0;" vertex="1" parent="1">
          <mxGeometry x="80" y="300" width="60" height="30" as="geometry" />
        </mxCell>
        <mxCell id="4zZC_BVY_g6dotP5J9YV-22" value="自我" style="ellipse;whiteSpace=wrap;html=1;" vertex="1" parent="1">
          <mxGeometry x="235" y="-365" width="70" height="50" as="geometry" />
        </mxCell>
        <mxCell id="4zZC_BVY_g6dotP5J9YV-23" value="沟通" style="ellipse;whiteSpace=wrap;html=1;" vertex="1" parent="1">
          <mxGeometry x="335" y="-365" width="70" height="50" as="geometry" />
        </mxCell>
        <mxCell id="4zZC_BVY_g6dotP5J9YV-24" value="商业" style="ellipse;whiteSpace=wrap;html=1;" vertex="1" parent="1">
          <mxGeometry x="515" y="-365" width="70" height="50" as="geometry" />
        </mxCell>
        <mxCell id="4zZC_BVY_g6dotP5J9YV-25" value="" style="rounded=1;whiteSpace=wrap;html=1;" vertex="1" parent="1">
          <mxGeometry x="215" y="10" width="505" height="130" as="geometry" />
        </mxCell>
        <mxCell id="4zZC_BVY_g6dotP5J9YV-26" value="决策" style="text;html=1;strokeColor=none;fillColor=none;align=center;verticalAlign=middle;whiteSpace=wrap;rounded=0;" vertex="1" parent="1">
          <mxGeometry x="175" y="-10" width="60" height="30" as="geometry" />
        </mxCell>
        <mxCell id="4zZC_BVY_g6dotP5J9YV-27" value="灰度" style="ellipse;whiteSpace=wrap;html=1;" vertex="1" parent="1">
          <mxGeometry x="230" y="20" width="70" height="50" as="geometry" />
        </mxCell>
        <mxCell id="4zZC_BVY_g6dotP5J9YV-28" value="飞轮效应" style="ellipse;whiteSpace=wrap;html=1;" vertex="1" parent="1">
          <mxGeometry x="235" y="-70" width="70" height="50" as="geometry" />
        </mxCell>
      </root>
    </mxGraphModel>
  </diagram>
</mxfile>
